<svg xmlns="http://www.w3.org/2000/svg" width="31.5" height="31.5" viewBox="1491 1632 31.5 31.5"><path d="M1519.125 1632h-24.75a3.376 3.376 0 0 0-3.375 3.375v24.75a3.376 3.376 0 0 0 3.375 3.375h24.75a3.376 3.376 0 0 0 3.375-3.375v-24.75a3.376 3.376 0 0 0-3.375-3.375Zm-3.438 11.166c.014.196.014.4.014.597 0 6.096-4.64 13.12-13.12 13.12a13.06 13.06 0 0 1-7.081-2.067c.373.043.731.057 1.11.057a9.246 9.246 0 0 0 5.724-1.97 4.618 4.618 0 0 1-4.31-3.198c.71.105 1.35.105 2.081-.085a4.612 4.612 0 0 1-3.69-4.528v-.056a4.608 4.608 0 0 0 2.08.584 4.602 4.602 0 0 1-2.053-3.84c0-.857.225-1.645.626-2.327a13.094 13.094 0 0 0 9.506 4.824c-.654-3.13 1.688-5.668 4.5-5.668 1.33 0 2.524.556 3.368 1.456a9.036 9.036 0 0 0 2.925-1.111 4.6 4.6 0 0 1-2.025 2.538 9.177 9.177 0 0 0 2.658-.717 9.707 9.707 0 0 1-2.313 2.39Z" fill-rule="evenodd" data-name="Icon awesome-twitter-square"/></svg>